<svg xmlns="http://www.w3.org/2000/svg" width="21" height="20" viewBox="0 0 21 20">
    <path id="Shape"
        d="M14.845,19.7l-3.1-1.622a3.144,3.144,0,0,0-2.481,0L6.155,19.7a1.778,1.778,0,0,1-2.743-1.98l.593-3.434a3.091,3.091,0,0,0-.767-2.344L.726,9.507A1.767,1.767,0,0,1,1.775,6.3l3.47-.5A3.12,3.12,0,0,0,7.252,4.353L8.8,1.229a1.784,1.784,0,0,1,3.39,0l1.552,3.125A3.12,3.12,0,0,0,15.755,5.8l3.471.5a1.767,1.767,0,0,1,1.048,3.2l-2.512,2.432a3.091,3.091,0,0,0-.767,2.344l.593,3.434C17.823,19.079,17.064,20,15.976,20A2.456,2.456,0,0,1,14.845,19.7Z"
        transform="translate(0 0)" fill="#1d262c" />
</svg>