<svg xmlns="http://www.w3.org/2000/svg" width="11" height="10" viewBox="0 0 11 10">
    <path id="Shape"
        d="M8.451,6.156l2.373-1.864a.45.45,0,0,0-.278-.805L7.491,3.311a.478.478,0,0,1-.417-.287L5.951.289a.488.488,0,0,0-.891,0L3.937,3.013a.478.478,0,0,1-.417.287L.454,3.477a.45.45,0,0,0-.278.805L2.549,6.134a.452.452,0,0,1,.162.463L1.935,9.432a.472.472,0,0,0,.718.5L5.234,8.351a.473.473,0,0,1,.509,0L8.336,9.928a.472.472,0,0,0,.718-.5L8.278,6.609A.442.442,0,0,1,8.451,6.156Z"
        fill="#ffdc68" />
</svg>