<svg xmlns="http://www.w3.org/2000/svg" xmlns:xlink="http://www.w3.org/1999/xlink" width="430.29" height="188.485" viewBox="0 0 430.29 188.485">
  <defs>
    <!-- <linearGradient id="linear-gradient" x1="-0.096" y1="-0.255" x2="0.339" y2="0.301" gradientUnits="objectBoundingBox">
      <stop offset="0"/>
      <stop offset="1"/>
    </linearGradient> -->
    <linearGradient id="linear-gradient-2" x1="0.446" y1="0.027" x2="0.507" y2="0.75" xlink:href="#linear-gradient"/>
    <linearGradient id="linear-gradient-3" x1="0.61" y1="-0.003" x2="0.466" y2="0.87" xlink:href="#linear-gradient"/>
    <linearGradient id="linear-gradient-4" x1="0.463" y1="-0.242" x2="0.502" y2="0.645" xlink:href="#linear-gradient"/>
    <linearGradient id="linear-gradient-5" x1="-0.506" y1="0.905" x2="0.552" y2="0.523" xlink:href="#linear-gradient"/>
    <linearGradient id="linear-gradient-6" x1="0.5" y1="1.199" x2="0.5" y2="0.081" xlink:href="#linear-gradient"/>
    <linearGradient id="linear-gradient-7" x1="0.762" y1="1.237" x2="0.579" y2="0.661" xlink:href="#linear-gradient"/>
    <linearGradient id="linear-gradient-8" x1="1.11" y1="-0.316" x2="0.422" y2="0.593" xlink:href="#linear-gradient"/>
    <linearGradient id="linear-gradient-9" x1="0.552" y1="-0.278" x2="0.493" y2="0.648" xlink:href="#linear-gradient"/>
    <linearGradient id="linear-gradient-10" x1="0.601" y1="1.356" x2="0.511" y2="0.678" xlink:href="#linear-gradient"/>
    <linearGradient id="linear-gradient-11" x1="0.189" y1="-0.13" x2="0.453" y2="0.246" xlink:href="#linear-gradient"/>
    <linearGradient id="linear-gradient-12" x1="1.014" y1="0.991" x2="0.448" y2="0.476" xlink:href="#linear-gradient"/>
    <linearGradient id="linear-gradient-13" x1="0.54" y1="-0.002" x2="0.488" y2="0.827" xlink:href="#linear-gradient"/>
    <linearGradient id="linear-gradient-14" x1="0.5" y1="0.041" x2="0.5" y2="0.368" xlink:href="#linear-gradient"/>
    <linearGradient id="linear-gradient-16" x1="1.27" y1="-0.113" x2="0.368" y2="0.623" xlink:href="#linear-gradient"/>
    <linearGradient id="linear-gradient-17" x1="0.5" y1="-0.027" x2="0.5" y2="0.731" xlink:href="#linear-gradient"/>
  </defs>
  <g id="Group_1" data-name="Group 1" transform="translate(36.387 -310.254)">
    <g id="Group_20" data-name="Group 20" transform="translate(98 310)">
      <path id="Fill_1" data-name="Fill 1" d="M41.825,16.835s-6.453,7.687-12.366,8.759S11.359,27.56,9.566,8.79c0,0,.717-6.256-1.793-7.507S2.371-.411.5.436,2.577,2.177,2.577,2.177.963,6.646,2.756,9.864a108.348,108.348,0,0,0,1.434,11.8s1.253,9.474,11.469,15.194S42.9,32.386,42.9,32.386Z" transform="translate(77.9 26.223)" fill="#ff7273"/>
      <path id="Fill_3" data-name="Fill 3" d="M41.825,16.836s-6.453,7.686-12.366,8.758-18.1,1.966-19.893-16.8c0,0,.716-6.256-1.793-7.507S2.371-.411.5.436,2.577,2.178,2.577,2.178.963,6.647,2.756,9.864a108.077,108.077,0,0,0,1.434,11.8s1.253,9.474,11.469,15.193S42.9,32.386,42.9,32.386Z" transform="translate(77.9 26.222)" fill="url(#linear-gradient)"/>
      <path id="Fill_6" data-name="Fill 6" d="M.9,0,.18,1.787,0,4.111a24.665,24.665,0,0,0,16.847,8.4L7.348,1.787Z" transform="translate(146.428 176.226)" fill="#e0dbd0"/>
      <path id="Fill_8" data-name="Fill 8" d="M.9,0,.18,1.787,0,4.111a24.665,24.665,0,0,0,16.847,8.4L7.348,1.787Z" transform="translate(146.428 176.227)" fill="url(#linear-gradient-2)"/>
      <path id="Fill_11" data-name="Fill 11" d="M15.95,0l.716,1.787.18,2.324A24.665,24.665,0,0,1,0,12.512L9.5,1.787Z" transform="translate(106.968 176.226)" fill="#e0dbd0"/>
      <path id="Fill_13" data-name="Fill 13" d="M15.95,0l.716,1.787.18,2.324A24.665,24.665,0,0,1,0,12.512L9.5,1.787Z" transform="translate(106.968 176.227)" fill="url(#linear-gradient-3)"/>
      <path id="Fill_16" data-name="Fill 16" d="M17.562.714l-1.254,2.86S13.082,12.512,4.3,14.835a40.136,40.136,0,0,0-4.122.716L0,25.561s3.583.714,3.763-1.252c0,0,2.509,0,2.15-2.324,0,0,17.922-3.574,20.43-18.589V0Z" transform="translate(151.268 66.117)" fill="#ff7273"/>
      <path id="Fill_18" data-name="Fill 18" d="M12.006,0l.538,5.541L18.638,17.16,5.913,23.774,0,11.44,3.942,6.077l.18-4.826Z" transform="translate(128.866 33.584)" fill="#ff7273"/>
      <path id="Fill_20" data-name="Fill 20" d="M12.006,0l.537,5.541L18.638,17.16,5.913,23.774,0,11.439,3.942,6.077l.18-4.827Z" transform="translate(128.866 33.584)" fill="url(#linear-gradient-4)"/>
      <path id="Fill_23" data-name="Fill 23" d="M28.842.378A24.3,24.3,0,0,0,21.673.2c-3.9.614-6.63,3.753-8.243,5.184S9.845,9.852,3.214,10.567c0,0-6.452,7.328-1.075,13.585.716-.179,12.185-1.787,17.2-6.792,0,0,.538,16.445,2.15,24.132a45.616,45.616,0,0,0,28.5,2.5A288.732,288.732,0,0,1,52.5,14.678a15.959,15.959,0,0,1,12.545,6.971l.717,2.682,10.394-2.86s.359-2.681-3.4-8.222S56.441-1.409,43.9.557L37.085,6.1l-2.33,5.721-.716-5.542Z" transform="translate(101.457 41.249)" fill="#202661"/>
      <path id="Fill_25" data-name="Fill 25" d="M21.673,0c-3.9.613-6.631,3.753-8.243,5.183S9.845,9.651,3.214,10.367c0,0-6.452,7.329-1.075,13.585.716-.178,12.185-1.787,17.2-6.792" transform="translate(101.457 41.449)" fill="url(#linear-gradient-5)"/>
      <path id="Fill_28" data-name="Fill 28" d="M22.222.557,15.412,6.1l-2.33,5.721-.716-5.541-5.2-5.9A24.281,24.281,0,0,0,0,.2" transform="translate(123.13 41.249)" fill="url(#linear-gradient-6)"/>
      <path id="Fill_31" data-name="Fill 31" d="M8.6,14.394a15.962,15.962,0,0,1,12.545,6.972l.717,2.682,10.394-2.861s.359-2.681-3.4-8.222S12.546-1.693,0,.273" transform="translate(145.352 41.533)" fill="url(#linear-gradient-7)"/>
      <path id="Fill_34" data-name="Fill 34" d="M4.272,20.578l-.717-1.429A19.725,19.725,0,0,0,.866,13.428c-1.971-2.859-.716-8.222,5.2-6.792,0,0,.538-3.216,2.33-4.826A6.2,6.2,0,0,1,14.129.2,3.569,3.569,0,0,1,16.1,4.849a15.563,15.563,0,0,1,9.856,1.609c4.839,2.681,0,7.865,0,7.865s6.093,5.541,2.688,10.01-9.5.714-9.5.714Z" transform="translate(124.056 5.498)" fill="#ffc764"/>
      <path id="Fill_36" data-name="Fill 36" d="M4.353,10.728l.024,0L3.305,0,2.861.043,2.751.055,2.308.1,3.379,10.825l.025,0S-.807,12.079.138,12.432a10.566,10.566,0,0,0,3.124.192L4,12.55l.111-.011.737-.074a10.57,10.57,0,0,0,3.024-.8c.857-.532-3.519-.935-3.519-.935" transform="translate(76.095 26.56)" fill="#f5f0e4"/>
      <path id="Fill_38" data-name="Fill 38" d="M5.36,0,2.885.245.41.492S-.135,7.552.032,10.768s1.8,5.48,4.427,5.219S8.24,13.186,7.765,10,5.36,0,5.36,0" transform="translate(74.483 11.022)" fill="#f5f0e4"/>
      <path id="Fill_40" data-name="Fill 40" d="M.039.023C0,1.342-.018,2.6.03,3.524a4.868,4.868,0,0,0,1.3,3.435,2.023,2.023,0,0,0,1.6.468,2.02,2.02,0,0,0,1.473-.773,4.869,4.869,0,0,0,.59-3.623c-.046-.319-.111-.678-.186-1.065a2.3,2.3,0,0,1-2.143-.59C1.82.45,1.529-.125.039.023" transform="translate(75.881 18.195)" fill="#ffc764"/>
      <path id="Fill_42" data-name="Fill 42" d="M1.474.663a.739.739,0,1,0-.661.807A.738.738,0,0,0,1.474.663" transform="translate(74.892 6.662)" fill="#ffc764"/>
      <path id="Fill_44" data-name="Fill 44" d="M1.072.483A.537.537,0,1,0,.59,1.07.535.535,0,0,0,1.072.483" transform="translate(77.475 4.336)" fill="#ffc764"/>
      <path id="Fill_46" data-name="Fill 46" d="M.748.453a.269.269,0,1,0-.24.293A.269.269,0,0,0,.748.453" transform="translate(75.881 0.043)" fill="#ffc764"/>
      <path id="Fill_48" data-name="Fill 48" d="M5.083.338C5.112.633,4,.985,2.595,1.124S.03,1.138,0,.843,1.086.2,2.489.057,5.054.043,5.083.338" transform="translate(74.826 10.677)" fill="#e0dbd0"/>
      <path id="Fill_50" data-name="Fill 50" d="M17.191,9.207s1.075-2.949,3.761-1.743,2.283,4.289.94,5.765-4.7.536-4.7.536C15.848,21,8.327,22.21,5.1,21.406S.269,16.848.269,14.7,0,2.682,0,2.682,2.51,5.542,6.99,0c0,0-.538,3.039.9,3.576s6.093-1.073,7.706-1.43c0,0,.179,6.613.179,7.865s1.421-.8,1.421-.8" transform="translate(127.61 16.781)" fill="#ff7273"/>
      <path id="Fill_52" data-name="Fill 52" d="M2.457,0A2.529,2.529,0,0,0,.772.808C.377,1.179-.16,1.817.045,2.4a.14.14,0,0,0,.2.082c.417-.273.593-.815.922-1.179A7.025,7.025,0,0,1,2.541.312.168.168,0,0,0,2.457,0" transform="translate(145.916 25.827)"/>
      <path id="Fill_54" data-name="Fill 54" d="M7.518,2.39s2.867,2.682-2.866,4.648C.778,8.364.529,5.965.169,4.178S-.188-.469,2.321.066,6.8,1.318,7.518,2.39" transform="translate(76.185 28.155)" fill="#ff7273"/>
      <path id="Fill_56" data-name="Fill 56" d="M8.6.757A14.817,14.817,0,0,0,1.792.22,49.672,49.672,0,0,0,0,13.091a11.86,11.86,0,0,0,7.527,1.251S7.169,11.3,8.6.757" transform="translate(96.069 51.059)" fill="#202661"/>
      <path id="Fill_58" data-name="Fill 58" d="M12.135,8.223S14.106,3.932,11.776,0A71.06,71.06,0,0,0,.086,1.656,13.9,13.9,0,0,0,1.2,8.759s.306.436,10.932-.536" transform="translate(166.373 60.933)" fill="#202661"/>
      <path id="Fill_60" data-name="Fill 60" d="M0,7.687,2.867,13.05S4.391,7.777,6,2.414A10.726,10.726,0,0,0,3.584,0S1.434,4.023,0,7.687" transform="translate(138.542 39.661)" fill="#e0dbd0"/>
      <path id="Fill_62" data-name="Fill 62" d="M1.882,0,0,1.161A92.029,92.029,0,0,0,1.613,11.8S4.122,8.669,5.2,7.06A35.6,35.6,0,0,1,1.882,0" transform="translate(130.299 40.466)" fill="#e0dbd0"/>
      <path id="Fill_64" data-name="Fill 64" d="M1.433.714a.717.717,0,1,0-.716.715A.716.716,0,0,0,1.433.714" transform="translate(135.138 57)" fill="#6487fe"/>
      <path id="Fill_66" data-name="Fill 66" d="M1.433.714a.717.717,0,1,0-.716.715A.716.716,0,0,0,1.433.714" transform="translate(135.138 63.972)" fill="#6487fe"/>
      <path id="Fill_68" data-name="Fill 68" d="M1.433.714a.717.717,0,1,0-.716.715A.716.716,0,0,0,1.433.714" transform="translate(135.138 71.122)" fill="#6487fe"/>
      <path id="Fill_70" data-name="Fill 70" d="M1.433.714a.717.717,0,1,0-.716.715A.715.715,0,0,0,1.433.714" transform="translate(135.138 78.093)" fill="#6487fe"/>
      <path id="Fill_72" data-name="Fill 72" d="M10.284,0A56.254,56.254,0,0,0,9.029,12.87S1.682,31.281.606,45.939-.5,76.683,3.8,95.273c0,0,1.824,1.609,7.2.179,0,0,.717-45.939,10.036-72.037l3.046,1.967s13.442,32.353,9.857,69.89c0,0,2.868,2.5,7.169,0,0,0,13.262-37.359-2.867-79.008,0,0,.538-10.188.538-13.764,0,0-11.291,1.61-18.46.179A55.591,55.591,0,0,1,10.284,0" transform="translate(112.667 82.741)" fill="#6487fe"/>
      <path id="Fill_74" data-name="Fill 74" d="M1.142.007A1.569,1.569,0,0,0,.008.963a.165.165,0,0,0,.159.207,1.579,1.579,0,0,0,1.255-.8.25.25,0,0,0-.28-.363" transform="translate(155.214 182.359)" fill="#202661"/>
      <path id="Fill_76" data-name="Fill 76" d="M1.355,0A1.342,1.342,0,0,0,0,1.367a.157.157,0,0,0,.264.109c.426-.362.789-.8,1.226-1.147A.2.2,0,0,0,1.355,0" transform="translate(154.358 181.482)" fill="#202661"/>
      <path id="Fill_78" data-name="Fill 78" d="M.035.371a1.581,1.581,0,0,0,1.256.8A.165.165,0,0,0,1.449.963,1.568,1.568,0,0,0,.315.007a.25.25,0,0,0-.28.363" transform="translate(113.571 182.359)" fill="#202661"/>
      <path id="Fill_80" data-name="Fill 80" d="M.057.329c.436.346.8.784,1.225,1.147a.158.158,0,0,0,.266-.109A1.344,1.344,0,0,0,.195,0,.2.2,0,0,0,.057.329" transform="translate(114.334 181.482)" fill="#202661"/>
      <path id="Fill_82" data-name="Fill 82" d="M.047.3C1.871,2.473,4.916,4.1,7.435,5.328a.18.18,0,0,0,.182-.312C6.393,4.174,5.155,3.352,3.931,2.512A31.6,31.6,0,0,0,.261.022.177.177,0,0,0,.047.3" transform="translate(131.373 103.669)"/>
      <path id="Fill_84" data-name="Fill 84" d="M.624.092a38.88,38.88,0,0,0-.49,6.661,17.473,17.473,0,0,0,.3,5.275c.016.057.111.05.107-.014C.276,8.1.8,4.047.881.127c0-.142-.23-.18-.257-.035" transform="translate(133.85 85.83)"/>
      <path id="Fill_86" data-name="Fill 86" d="M2.688,1.34a1.344,1.344,0,1,0-1.344,1.34A1.342,1.342,0,0,0,2.688,1.34" transform="translate(129.492 86.852)" fill="#ffc764"/>
      <path id="Fill_88" data-name="Fill 88" d="M2.424.105A4.817,4.817,0,0,0,.045.683.093.093,0,0,0,.092.855,4.873,4.873,0,0,0,2.49.348.131.131,0,0,0,2.424.105" transform="translate(152.961 90.174)"/>
      <path id="Fill_90" data-name="Fill 90" d="M.318,2.229A2.844,2.844,0,0,1,1.906.837a4.843,4.843,0,0,1,1.9-.1A.106.106,0,0,0,3.878.559C2.652-.821.305.609,0,2.1c-.037.18.222.316.314.132" transform="translate(136.396 25.362)"/>
      <path id="Fill_92" data-name="Fill 92" d="M2.826,1.756A2.207,2.207,0,0,0,1.7.3C1.286.08.4-.217.048.239A.174.174,0,0,0,.083.509,1.175,1.175,0,0,0,.642.623a2.238,2.238,0,0,1,.747.217A2.147,2.147,0,0,1,2.4,1.936c.108.255.485.067.43-.18" transform="translate(128.515 25.71)"/>
      <path id="Fill_94" data-name="Fill 94" d="M.157,1.224c.14-.1.211-.054.331-.115A2.276,2.276,0,0,0,.822.875,2.135,2.135,0,0,0,1.435.217a.144.144,0,0,0-.161-.21,2.051,2.051,0,0,0-.68.4,2.443,2.443,0,0,0-.382.35C.137.849.123.971.03,1.059s.027.234.127.165" transform="translate(135.478 25.047)"/>
      <path id="Fill_96" data-name="Fill 96" d="M.265.769A2.654,2.654,0,0,1,2.93,1.1c.131.095.319-.094.225-.223A2.15,2.15,0,0,0,.084.459.18.18,0,0,0,.265.769" transform="translate(135.697 21.554)" fill="#ffc764"/>
      <path id="Fill_98" data-name="Fill 98" d="M2.425.7A1.278,1.278,0,0,0,1.091.006,1.163,1.163,0,0,0,0,.97c-.036.152.172.31.287.167A1.355,1.355,0,0,1,2.056.983.236.236,0,0,0,2.425.7" transform="translate(129.506 21.45)" fill="#ffc764"/>
      <path id="Fill_100" data-name="Fill 100" d="M.186,1.426c.9.114,2.719-.193,3-1.248A.144.144,0,0,0,3.01,0,4.913,4.913,0,0,0,1.828.6a5.518,5.518,0,0,1-1.642.442.192.192,0,0,0,0,.384" transform="translate(133.876 30.935)"/>
      <path id="Fill_102" data-name="Fill 102" d="M.959,1.1A3.347,3.347,0,0,0,.188.027c-.076-.066-.22,0-.182.106A3.464,3.464,0,0,0,.722,1.283c.114.137.312-.037.237-.182" transform="translate(130.725 25.257)"/>
      <path id="Fill_200" data-name="Fill 200" d="M5.144,0A59.22,59.22,0,0,0,.306,12.691C-.778,17.783.843,25.2,8.012,30.387s9.319,5.005,9.319,5.005l-1.254-8.58s-6.093-2.681-7.706-8.58C6.636,11.891,15,4.111,15,4.111Z" transform="translate(0.551 54.319)" fill="#6487fe"/>
      <path id="Fill_202" data-name="Fill 202" d="M14.566,6.792S17.074,0,26.393,0,38.042,9.652,38.222,13.585,47,18.411,48.079,23.237s-3.943,4.648-1.793,9.474-.359,5.72-3.226,6.435S41.985,45.4,34.279,49.335,5.784,45.581,4.53,42.185.587,36.822.048,33.783s3.584-3.4,3.226-5.54S.587,24.668,1.483,20.02s5.735-2.86,6.094-7.864,3.046-6.615,6.989-5.363" transform="translate(3.854 13.028)" fill="#202661"/>
      <path id="Fill_204" data-name="Fill 204" d="M5.914,10.634c.179.537.359,6.256.9,10.367s11.649,10.369,13.62-8.222a20.663,20.663,0,0,1-.179-7.328c.717-3.039,5.376-9.653,3.584-1.609,0,0,4.122,2.324,4.3,2.86s.179,5.541-.9,6.792c0,0-1.075,12.155-4.839,16.8S8.065,39.413,0,27.972v-14.3Z" transform="translate(38.85 44.043)" fill="#6487fe"/>
      <path id="Fill_206" data-name="Fill 206" d="M5.914,10.634c.179.536.359,6.256.9,10.367s11.649,10.369,13.62-8.222a20.669,20.669,0,0,1-.179-7.329c.717-3.038,5.376-9.652,3.584-1.608,0,0,4.122,2.324,4.3,2.86s.179,5.54-.9,6.792c0,0-1.075,12.155-4.839,16.8S8.065,39.412,0,27.972v-14.3Z" transform="translate(38.85 44.043)" fill="url(#linear-gradient-8)"/>
      <path id="Fill_209" data-name="Fill 209" d="M4.6,10.814l.024,0L6.025.129,5.583.072,5.472.058,5.03,0l-1.4,10.688.025,0s-4.387.268-3.547.826a10.56,10.56,0,0,0,3,.9l.735.1.11.013.735.1a10.6,10.6,0,0,0,3.129-.1C8.769,12.2,4.6,10.814,4.6,10.814" transform="translate(60.078 43.858)" fill="#f5f0e4"/>
      <path id="Fill_211" data-name="Fill 211" d="M7.794.643,5.328.322,2.862,0S.723,6.751.15,9.922s.5,5.744,3.121,6.085,4.322-1.869,4.585-5.079S7.794.643,7.794.643" transform="translate(62.282 28.315)" fill="#f5f0e4"/>
      <path id="Fill_213" data-name="Fill 213" d="M.935,0C.593,1.276.291,2.5.127,3.408a4.875,4.875,0,0,0,.48,3.639,2.019,2.019,0,0,0,1.448.817,2.021,2.021,0,0,0,1.61-.418,4.874,4.874,0,0,0,1.4-3.394c.027-.321.047-.685.062-1.079A2.3,2.3,0,0,1,3.174,1.913C2.571.82,2.418.194.935,0" transform="translate(63.681 35.075)" fill="#ffc764"/>
      <path id="Fill_215" data-name="Fill 215" d="M1.472.834a.739.739,0,1,0-.829.635A.738.738,0,0,0,1.472.834" transform="translate(66.062 23.737)" fill="#ffc764"/>
      <path id="Fill_217" data-name="Fill 217" d="M1.071.606a.538.538,0,1,0-.6.462.537.537,0,0,0,.6-.462" transform="translate(69.158 22.018)" fill="#ffc764"/>
      <path id="Fill_219" data-name="Fill 219" d="M.747.514a.269.269,0,1,0-.3.231.268.268,0,0,0,.3-.231" transform="translate(68.6 17.465)" fill="#ffc764"/>
      <path id="Fill_221" data-name="Fill 221" d="M5.066.956c-.038.294-1.2.383-2.6.2S-.037.589,0,.3s1.2-.384,2.6-.2S5.1.662,5.066.956" transform="translate(65.077 28.011)" fill="#e0dbd0"/>
      <path id="Fill_223" data-name="Fill 223" d="M8.96,0,8.423,8.044,0,10.546S5.017,19.3,12.724,19.3s12.9-5.541,11.828-10.368A42.019,42.019,0,0,0,16.667,8.4L16.309.179Z" transform="translate(14.477 38.589)" fill="#6487fe"/>
      <path id="Fill_225" data-name="Fill 225" d="M8.961,0,8.423,8.044,0,10.546S5.018,19.3,12.724,19.3s12.9-5.54,11.829-10.367A42.083,42.083,0,0,0,16.667,8.4L16.309.179Z" transform="translate(14.476 38.589)" fill="url(#linear-gradient-9)"/>
      <path id="Fill_228" data-name="Fill 228" d="M33.155,0S31.183,6.077,22.94,6.077,12.187.537,12.187.537,7.348-.537,4.66,1.787A29.439,29.439,0,0,0,0,7.329a9.227,9.227,0,0,0,5.914,3.216s-1.254,3.217,3.764,2.86v.537s-2.151,3.4,1.433,7.508l.717,15.194s8.065,4.647,22.4,1.608c-.179-.535,1.254-17.517,1.254-17.517a5.162,5.162,0,0,0,1.793-7.15s2.329-.715,1.075-3.218c0,0,4.122-1.429,5.2-4.646,0,0-4.3-5.721-10.394-5.721" transform="translate(4.082 47.348)" fill="#e0dbd0"/>
      <path id="Fill_230" data-name="Fill 230" d="M.142,2.483S-.816,4.776,2.248,6.5s4.406,1.911,4.79,0S8.761,0,5.7,0,.524,1.146.142,2.483" transform="translate(61.119 47.736)" fill="#6487fe"/>
      <path id="Fill_232" data-name="Fill 232" d="M.151,1.4c1.06-.263,2.127-.515,3.208-.68S5.533.588,6.6.4a.148.148,0,0,0,0-.283A12.225,12.225,0,0,0,.061,1.183c-.127.054-.035.245.09.215" transform="translate(23.864 66.643)"/>
      <path id="Fill_234" data-name="Fill 234" d="M.161.814a10.919,10.919,0,0,1,1.588-.3A8.77,8.77,0,0,0,3.011.379a.089.089,0,0,0,0-.17A6.437,6.437,0,0,0,.092.563.13.13,0,0,0,.161.814" transform="translate(26.184 64.378)"/>
      <path id="Fill_236" data-name="Fill 236" d="M36.717,79.155a48.127,48.127,0,0,0,3.116-6.405c3.406-8.758,9.5-32.71-12.007-62.919l-.717-8.223S15.1,4.826,4.707,0c0,0-1.793,10.01-2.688,14.479S-3.357,42.9,4.886,76.326c0,0,6.108,2.513,10.85-.532-.323-5.135-.578-11.956-.634-20.918-.18-28.243,1.433-28.243,1.433-28.243s9.5,8.937,12.366,17.339c2.044,5.989,3.451,17.247-.975,29.824,3.685,6.229,8.79,5.359,8.79,5.359" transform="translate(11.203 83.992)" fill="#ff7273"/>
      <path id="Fill_238" data-name="Fill 238" d="M36.716,79.155a48.055,48.055,0,0,0,3.116-6.4c3.406-8.759,9.5-32.71-12.006-62.92l-.717-8.223S15.1,4.826,4.707,0c0,0-1.793,10.01-2.688,14.479S-3.357,42.9,4.887,76.326c0,0,6.108,2.513,10.849-.532-.322-5.135-.578-11.955-.634-20.918-.18-28.243,1.434-28.243,1.434-28.243s9.5,8.937,12.365,17.339c2.044,5.989,3.451,17.247-.975,29.824,3.685,6.23,8.79,5.359,8.79,5.359" transform="translate(11.203 83.991)" fill="url(#linear-gradient-10)"/>
      <path id="Fill_241" data-name="Fill 241" d="M8.524,0S4.014,10.344,0,15.578c0,0,4.123,11.619,15.413,15.372,0,0-2.33-9.473-5.735-14.657A80.307,80.307,0,0,0,17.314,5.359S12.747,4.8,8.524,0" transform="translate(30.606 157.788)" fill="#ffc764"/>
      <path id="Fill_243" data-name="Fill 243" d="M16.226,0l1.7,14.3C10.394,25.914,0,27.523,0,27.523,3.047,22.16,8.065,13.043,8.065,13.043L5.376.532S11.484,1.793,16.226,0" transform="translate(10.713 159.786)" fill="#ffc764"/>
      <path id="Fill_245" data-name="Fill 245" d="M2.688,1.34a1.344,1.344,0,1,0-1.344,1.34A1.342,1.342,0,0,0,2.688,1.34" transform="translate(26.395 89.265)" fill="#ffc764"/>
      <path id="Fill_247" data-name="Fill 247" d="M.412.145C.319,2.055.3,3.965.254,5.877a50.849,50.849,0,0,0-.206,5.717.076.076,0,0,0,.148.02C1.24,8.159,1.061,3.7.714.145a.151.151,0,0,0-.3,0" transform="translate(31.288 86.527)"/>
      <path id="Fill_249" data-name="Fill 249" d="M3.728.025A23.165,23.165,0,0,0,.081,2.541a.269.269,0,0,0,.325.421A23.18,23.18,0,0,0,3.937.294C4.089.172,3.892-.08,3.728.025" transform="translate(26.762 108.089)"/>
      <path id="Fill_251" data-name="Fill 251" d="M.557,6.754C1.191,5.726,1.642,4.6,2.272,3.562c.6-.979,1.452-2.723,2.79-2.645q1.251-.194.786,1.776a3.667,3.667,0,0,1-.737.755A19.5,19.5,0,0,1,3.388,4.728C2.331,5.452,1.244,6.15.119,6.766c-.285.155,0,.614.251.427C1.4,6.425,2.489,5.734,3.587,5.068A17.386,17.386,0,0,0,5.9,3.689c.907-.769,1.495-2.3.394-3.19C3.388-1.859.6,4.8.3,6.648a.14.14,0,0,0,.254.106" transform="translate(18.494 166.327)" fill="#202661"/>
      <path id="Fill_253" data-name="Fill 253" d="M7.376,4.792C6.795,3.255,4.9,2.046,3.563,1.163,2.8.659,1.221-.625.34.364c-.84.943.042,2.155.838,2.729A8.618,8.618,0,0,0,6.725,4.729c.26-.033.377-.436.068-.5-1.1-.236-2.222-.289-3.309-.619a9.774,9.774,0,0,1-1.911-.783,3.014,3.014,0,0,1-.8-.544Q.993.113,2.039.992c2.092.65,3.289,3,5.14,3.952.094.049.241-.035.2-.151" transform="translate(11.697 168.015)" fill="#202661"/>
      <path id="Fill_255" data-name="Fill 255" d="M5.627.049C3.468,1.421.962,3.533.015,5.977c-.091.235.252.41.414.241C1.3,5.3,1.956,4.2,2.827,3.266A23.879,23.879,0,0,1,5.915.541c.285-.215.03-.694-.288-.492" transform="translate(13.36 172.528)" fill="#202661"/>
      <path id="Fill_257" data-name="Fill 257" d="M.064.394A30.62,30.62,0,0,1,2.257,2.708,23.543,23.543,0,0,0,4.229,5.193.284.284,0,0,0,4.7,4.919,7.815,7.815,0,0,0,2.892,2.3,15.616,15.616,0,0,0,.339.038C.129-.113-.12.22.064.394" transform="translate(18.348 172.985)" fill="#202661"/>
      <path id="Fill_259" data-name="Fill 259" d="M.084.307c.368.212.731.43,1.091.655.28.174.483.357.822.279A.175.175,0,0,0,2.1.987C1.975.7,1.738.649,1.454.532,1.05.367.65.2.253.017.061-.07-.107.2.084.307" transform="translate(17.892 176.065)" fill="#202661"/>
      <path id="Fill_261" data-name="Fill 261" d="M.125.46a2.892,2.892,0,0,0,1.192.586c.236.017.3-.271.175-.422A2.883,2.883,0,0,0,.38.026C.089-.1-.159.288.125.46" transform="translate(18.171 177.049)" fill="#202661"/>
      <path id="Fill_263" data-name="Fill 263" d="M6.218,6.8C6.469,5.129,5.445,3.267,4.4,2.021,3.655,1.135,1.818-.752.562.321-.753,1.445.53,3.138,1.448,3.986c1.4,1.3,3.359,2.486,5.313,1.776a.322.322,0,0,0-.172-.621,4.612,4.612,0,0,1-3.945-.974A7.793,7.793,0,0,1,1.109,2.855Q-.31,1.466,2,.817a4.164,4.164,0,0,1,.582.391A7.716,7.716,0,0,1,4.747,3.672,22.189,22.189,0,0,1,5.861,6.8c.057.149.327.2.357,0" transform="translate(34.2 168.03)" fill="#202661"/>
      <path id="Fill_265" data-name="Fill 265" d="M.847,5.455A26.583,26.583,0,0,1,3.4,2.7a11.494,11.494,0,0,1,1.946-1.3c.908-.481,2.322-.86,1.468.765A5.388,5.388,0,0,1,3.783,4.609a12.35,12.35,0,0,1-3.578.205c-.157.008-.288.225-.142.342,2.5,2,7.683-.778,7.955-3.8.189-2.1-2-1.284-3.089-.675a10.131,10.131,0,0,0-4.5,4.535c-.1.232.256.415.414.241" transform="translate(40.204 168.839)" fill="#202661"/>
      <path id="Fill_267" data-name="Fill 267" d="M4.068.046a26.926,26.926,0,0,0-2.05,1.977A27.278,27.278,0,0,0,.058,4.091a.226.226,0,0,0,.32.319A27.294,27.294,0,0,0,2.387,2.392,27.106,27.106,0,0,0,4.306.283.168.168,0,0,0,4.068.046" transform="translate(36.3 173.762)" fill="#202661"/>
      <path id="Fill_269" data-name="Fill 269" d="M.065.319C.842.99,1.691,1.575,2.484,2.227c.739.609,1.426,1.3,2.2,1.864.369.271.729-.292.463-.6A14.441,14.441,0,0,0,.3.016C.116-.062-.115.162.065.319" transform="translate(40.11 174.033)" fill="#202661"/>
      <path id="Fill_271" data-name="Fill 271" d="M1.6.033C1.143.331.576.4.135.691a.283.283,0,0,0,.141.522A2.3,2.3,0,0,0,1.862.37C2.031.2,1.81-.1,1.6.033" transform="translate(39.291 176.723)" fill="#202661"/>
      <path id="Fill_273" data-name="Fill 273" d="M1.6,0A1.857,1.857,0,0,0,.018.791.135.135,0,0,0,.2.975,3.99,3.99,0,0,1,1.6.411c.26-.025.267-.428,0-.41" transform="translate(39.22 178.195)" fill="#202661"/>
      <path id="Fill_275" data-name="Fill 275" d="M.317,2.31A7.674,7.674,0,0,0,1.36.117C1.394,0,1.245-.04,1.184.042A7.689,7.689,0,0,0,.01,2.181c-.065.191.2.274.307.129" transform="translate(13.543 59.042)"/>
      <path id="Fill_277" data-name="Fill 277" d="M.023.215c.328.539.643,1.087,1,1.61A9.087,9.087,0,0,0,2.045,3.27c.111.107.332,0,.274-.159a7.223,7.223,0,0,0-.933-1.5C1.027,1.089.636.591.277.067.171-.087-.077.051.023.215" transform="translate(39.198 57.778)"/>
      <path id="Fill_279" data-name="Fill 279" d="M7.635.741S9.248,2.35,12.473.474s8.065,2.145,10.484,6.435c0,0-.268,4.826-.268,6.971s-1.614,5.9-4.84,6.7-10.753-.4-12.1-7.641c0,0-3.36.939-4.7-.536S-.7,7.846,1.989,6.64,5.753,8.383,5.753,8.383A10.349,10.349,0,0,1,7.1,5.031,4.435,4.435,0,0,0,7.635.741" transform="translate(13.76 21.715)" fill="#6487fe"/>
      <path id="Fill_281" data-name="Fill 281" d="M.078.312A7.213,7.213,0,0,1,1.45,1.3c.331.363.506.906.923,1.18a.141.141,0,0,0,.2-.083c.2-.582-.332-1.219-.728-1.591A2.529,2.529,0,0,0,.163,0,.168.168,0,0,0,.078.312" transform="translate(15.775 29.939)"/>
      <path id="Fill_283" data-name="Fill 283" d="M4.632,1.412A3.16,3.16,0,0,0,.06.692a.2.2,0,0,0,.2.337,4.133,4.133,0,0,1,4.026.652c.181.151.5-.045.35-.268" transform="translate(22.656 30.717)"/>
      <path id="Fill_285" data-name="Fill 285" d="M.214,2.1c.1-.195.13-.172.281-.294A6.881,6.881,0,0,0,1,1.164,4.25,4.25,0,0,1,2.41.1.05.05,0,0,0,2.384,0a3.006,3.006,0,0,0-1.7.743,2.511,2.511,0,0,0-.557.731c-.087.187-.044.341-.119.54-.044.119.151.2.208.087" transform="translate(33.435 30.068)"/>
      <path id="Fill_287" data-name="Fill 287" d="M3.577.924C2.634.06.949-.514.032.675A.206.206,0,0,0,.211.984C1.3.9,2.361.555,3.338,1.233c.185.128.4-.158.239-.309" transform="translate(24.739 26.379)" fill="#202661"/>
      <path id="Fill_289" data-name="Fill 289" d="M.249.912A7.179,7.179,0,0,0,2.393.244a.109.109,0,0,0-.055-.2,7.173,7.173,0,0,0-2.2.483A.2.2,0,0,0,.249.912" transform="translate(31.862 26.143)" fill="#202661"/>
      <path id="Fill_291" data-name="Fill 291" d="M.039.335c.226.228.328.457.635.59a1.96,1.96,0,0,0,.832.151A1.755,1.755,0,0,0,2.972.224C3.042.1,2.9-.06,2.77.023A2.421,2.421,0,0,1,1.506.434,2.4,2.4,0,0,1,.217.157c-.123-.1-.3.06-.179.178" transform="translate(29.159 35.727)"/>
      <path id="Fill_293" data-name="Fill 293" d="M1.013.673A4.968,4.968,0,0,0,.19.017.127.127,0,0,0,.018.19a4.876,4.876,0,0,0,.657.821c.214.221.56-.124.338-.337" transform="translate(27.254 30.597)"/>
      <path id="Fill_295" data-name="Fill 295" d="M.275.969A1.244,1.244,0,0,0,.849.1.081.081,0,0,0,.731.012,1.238,1.238,0,0,0,.114.846C.091.931.2,1.027.275.969" transform="translate(32.577 30.172)"/>
    </g>
    <g id="Group_24" data-name="Group 24" transform="matrix(0.951, -0.309, 0.309, 0.951, 293, 331.94)">
      <path id="Fill_104" data-name="Fill 104" d="M35.1,6.01S33.22-.961,23.274.112,11.983,16.467,9.027,19.148,2.306,22.9,2.306,28,5.264,33.36,1.23,39.526,3.65,51.86,12.253,53.737s29.3,4.825,31.453.268,3.494-4.559,5.376-6.167,4.839-5.9.269-12.065S55.8,27.729,50.694,22.1,42.63,18.881,41.554,11.1,36.984,5.743,35.1,6.01" transform="translate(17.665 0.573)" fill="#e0dbd0"/>
      <path id="Fill_106" data-name="Fill 106" d="M26.279,1.164c-2.688,2.011-3.495,7.775-4.57,12.065s-4.033,10.994-8.2,10.188c-3.9-.752-4.971-9.945-5.314-13.107,1.724-5.678.585-7.826-.062-8.343C7.461,1.431,5.714-.981,5.579.627a8.55,8.55,0,0,0,1.21,3.888L5.175,2.5C3.563.493.875.091.606,1.164S-.335,6.794.2,8.67a6.435,6.435,0,0,0,1.889,2.865c.1,5.9,1.472,21.535,10.745,21.535,9.677,0,14.785-10.322,14.785-10.322L33.133.359s-4.167-1.207-6.854.8" transform="translate(1.758 33.574)" fill="#202661"/>
      <path id="Fill_108" data-name="Fill 108" d="M26.279,1.163c-2.688,2.011-3.495,7.776-4.571,12.065s-4.032,10.994-8.2,10.188c-3.9-.752-4.971-9.945-5.315-13.107,1.725-5.678.586-7.826-.062-8.343C7.461,1.431,5.714-.982,5.579.627A8.552,8.552,0,0,0,6.789,4.514L5.176,2.5C3.563.493.875.09.606,1.163S-.335,6.794.2,8.67a6.454,6.454,0,0,0,1.89,2.866c.1,5.9,1.471,21.534,10.745,21.534,9.677,0,14.785-10.322,14.785-10.322L33.133.359s-4.167-1.206-6.854.8" transform="translate(1.758 33.574)" fill="url(#linear-gradient-11)"/>
      <path id="Fill_111" data-name="Fill 111" d="M7.124,3.083S1.478,7.776,0,12.87A16.157,16.157,0,0,0,4.973,13c2.15-.4,11.021-8.044,11.021-8.044L14.785,0Z" transform="translate(23.715 155.043)" fill="#6487fe"/>
      <path id="Fill_113" data-name="Fill 113" d="M7.124,3.082S1.478,7.775,0,12.869A16.16,16.16,0,0,0,4.973,13C7.124,12.6,16,4.959,16,4.959L14.785,0Z" transform="translate(23.715 155.043)" fill="url(#linear-gradient-12)"/>
      <path id="Fill_116" data-name="Fill 116" d="M20.43,4.559,19.624,0,11.29.135l-.806,1.608S2.957,7.24,0,10.994c0,0,12.5,1.743,20.43-6.435" transform="translate(26.941 157.59)" fill="#6487fe"/>
      <path id="Fill_119" data-name="Fill 119" d="M13.324,0l-.941,8.446,4.3,1.743S13.593,14.345,6.47,14.345.017,7.776.017,7.776L4.99,7.105,5.259,2.28Z" transform="translate(34.874 26.157)" fill="#202661"/>
      <path id="Fill_121" data-name="Fill 121" d="M13.324,0l-.941,8.446,4.3,1.743S13.593,14.345,6.47,14.345.017,7.776.017,7.776L4.99,7.105,5.259,2.28Z" transform="translate(34.874 26.157)" fill="url(#linear-gradient-13)"/>
      <path id="Fill_124" data-name="Fill 124" d="M12.9,0S23.656,3.351,26.882,14.88s-.672,24.131-19.759,24L0,37.806l.672-6.167a79.735,79.735,0,0,0,8.871-.268c3.226-.4,8.334-2.681,8.6-7.909s-3.226-8.714-6.721-9.251S5.241,3.083,12.9,0" transform="translate(42.553 37.553)" fill="#202661"/>
      <path id="Fill_126" data-name="Fill 126" d="M27.86,17.963s-4.57,9.787-8.6,15.551H.574L.305,19.706s-.841-5.548.269-6.971A37.548,37.548,0,0,0,2.86,9.115,27.541,27.541,0,0,1,7.967,0s3.764,8.177,15.726,2.009a18.375,18.375,0,0,1,5.78,2.011s-3.763,1.61-3.495,7.373,1.882,6.569,1.882,6.569" transform="translate(26.924 33.933)" fill="#ff7273"/>
      <path id="Fill_128" data-name="Fill 128" d="M24.3,2.4S9.88,4.075,5.074,0a127.185,127.185,0,0,0-.481,19.654S-1.14,44.27.2,58.748,8.563,93.924,8.563,93.924s.806,2.145,6.586,1.207c0,0,6.317,2.815,9.14-1.744,0,0-.921-16-1.459-22.305A47.8,47.8,0,0,1,26.325,49.23c3.226-8.044,5.914-13.809,5.377-21.45S27.266,12.631,25.653,9.011A14.746,14.746,0,0,1,24.3,2.4" transform="translate(22.276 64.202)" fill="#ffc764"/>
      <path id="Fill_130" data-name="Fill 130" d="M0,2.28s-.132,5.7,3.36,5.9C8.2,8.446,9.141,0,9.141,0S4.3,2.547,0,2.28" transform="translate(41.477 35.943)" fill="#ffc764"/>
      <path id="Fill_132" data-name="Fill 132" d="M1.356,0s-2.761,4.514-.4,7.909C3.372,11.4,7.942,4.29,7.942,4.29A11.079,11.079,0,0,1,1.356,0" transform="translate(33.535 33.933)" fill="#ffc764"/>
      <path id="Fill_134" data-name="Fill 134" d="M4.617,10.792l.024,0L6.428.166,5.989.093,5.879.074,5.439,0,3.652,10.631l.024,0s-4.393.11-3.574.7a10.542,10.542,0,0,0,2.964,1l.731.122.11.019.731.123a10.563,10.563,0,0,0,3.13.015c.967-.288-3.15-1.823-3.15-1.823" transform="translate(0.875 32.644)" fill="#f5f0e4"/>
      <path id="Fill_136" data-name="Fill 136" d="M8.188.821,5.735.409,3.282,0S.9,6.67.213,9.817s.292,5.759,2.9,6.194S7.5,14.3,7.878,11.1,8.188.821,8.188.821" transform="translate(3.631 17.112)" fill="#f5f0e4"/>
      <path id="Fill_138" data-name="Fill 138" d="M1.111,0C.723,1.262.377,2.475.181,3.376A4.868,4.868,0,0,0,.528,7.03,2.016,2.016,0,0,0,1.945,7.9a2.018,2.018,0,0,0,1.624-.36A4.871,4.871,0,0,0,5.093,4.2c.038-.321.071-.684.1-1.077a2.3,2.3,0,0,1-1.915-1.13C2.717.878,2.587.246,1.111,0" transform="translate(5.028 23.85)" fill="#ffc764"/>
      <path id="Fill_140" data-name="Fill 140" d="M1.468.86a.739.739,0,1,0-.852.606A.738.738,0,0,0,1.468.86" transform="translate(7.968 12.596)" fill="#ffc764"/>
      <path id="Fill_142" data-name="Fill 142" d="M1.068.626a.538.538,0,1,0-.619.44.538.538,0,0,0,.619-.44" transform="translate(11.133 10.982)" fill="#ffc764"/>
      <path id="Fill_144" data-name="Fill 144" d="M.746.524a.269.269,0,1,0-.31.22.268.268,0,0,0,.31-.22" transform="translate(10.742 6.411)" fill="#ffc764"/>
      <path id="Fill_146" data-name="Fill 146" d="M5.039,1.1c-.049.292-1.217.339-2.608.106S-.047.547,0,.254,1.218-.085,2.609.148s2.479.658,2.43.95" transform="translate(6.846 16.846)" fill="#e0dbd0"/>
      <path id="Fill_148" data-name="Fill 148" d="M.039.256A18.26,18.26,0,0,0,3.68,2.77,17.615,17.615,0,0,0,7.653,4.745c.235.068.327-.239.156-.368A36.989,36.989,0,0,0,3.783,2.051,34.393,34.393,0,0,0,.182.01C.04-.048-.058.16.039.256" transform="translate(31.826 51.491)"/>
      <path id="Fill_150" data-name="Fill 150" d="M.041.3C.373.688.7,1.068,1.056,1.435c.29.3.577.689,1.006.772a.242.242,0,0,0,.294-.293C2.23,1.462,1.789,1.2,1.439.919,1.052.606.655.321.25.032.082-.088-.078.162.041.3" transform="translate(37.176 51.288)"/>
      <path id="Fill_152" data-name="Fill 152" d="M.15,1.637C1.111,1.2,2.111.755,3.025.224A.122.122,0,0,0,2.931,0a6.632,6.632,0,0,0-2.9,1.484c-.089.076.025.194.117.151" transform="translate(54.466 50.443)"/>
      <path id="Fill_154" data-name="Fill 154" d="M.085.924A1.561,1.561,0,0,0,2,.369.254.254,0,0,0,1.659.025C1.4.135,1.187.317.926.422A4.56,4.56,0,0,1,.128.6.178.178,0,0,0,.085.924" transform="translate(16.752 62.112)"/>
      <path id="Fill_156" data-name="Fill 156" d="M2.688,1.339A1.344,1.344,0,1,0,1.345,2.68a1.342,1.342,0,0,0,1.344-1.34" transform="translate(31.799 68.254)" fill="#6487fe"/>
      <path id="Fill_158" data-name="Fill 158" d="M5.927,67.588C2.318,55.345.294,43.221.778,30.408a116.283,116.283,0,0,1,2.266-18.8c.322-1.584.665-3.165,1.046-4.736.181-.749.979-2.436.817-3.178C4.649,2.52,2.873.937,2.1.086c-.227-.248-.686.091-.476.366a26.588,26.588,0,0,1,2.17,2.78c.535.941.115,1.573-.176,2.683C2.862,8.8,2.224,11.7,1.734,14.633A123.049,123.049,0,0,0,.027,32.5C-.2,44.155.928,56.851,5.449,67.72c.118.285.571.183.479-.131" transform="translate(31.667 91.583)"/>
      <path id="Fill_160" data-name="Fill 160" d="M.822.065C.5.563-.2,1.338.054,1.979a.2.2,0,0,0,.284.115c.625-.3.631-1.342.73-1.926a.135.135,0,0,0-.245-.1" transform="translate(37.826 128.707)"/>
      <path id="Fill_162" data-name="Fill 162" d="M.012.3C.144.782.2,1.556.675,1.817a.162.162,0,0,0,.235-.095C1.106,1.231.645.563.45.121.339-.131-.058.049.012.3" transform="translate(35.158 128.959)"/>
      <path id="Fill_164" data-name="Fill 164" d="M.619.057a3.152,3.152,0,0,0-.5,1.66.217.217,0,0,0,.4.108A3.2,3.2,0,0,0,.838.116.119.119,0,0,0,.619.057" transform="translate(27.189 128.031)"/>
      <path id="Fill_166" data-name="Fill 166" d="M0,.168c.075.69.272,1.656.953,2,.178.092.439-.063.363-.279a3.572,3.572,0,0,0-.478-.783A4.174,4.174,0,0,1,.347.121C.289-.054-.021-.04,0,.168" transform="translate(24.801 128.325)"/>
      <path id="Fill_168" data-name="Fill 168" d="M6.452,5.784a3.489,3.489,0,0,1-3.36,1.742C.805,7.259,0,7.66,0,4.98S.537-.249,2.016.019,7.527,2.835,6.452,5.784" transform="translate(1.558 33.913)" fill="#202661"/>
      <path id="Fill_170" data-name="Fill 170" d="M.494.133C0,4.442-.42,9.343.784,13.573a.1.1,0,0,0,.2-.028C.924,9.014.309,4.693.772.133.789-.046.514-.043.494.133" transform="translate(31.958 73.749)"/>
      <path id="Fill_172" data-name="Fill 172" d="M.081.292A4.96,4.96,0,0,0,1.575.957c.1.013.185-.094.1-.174A4.854,4.854,0,0,0,.243.017C.059-.065-.1.194.081.292" transform="translate(33.978 162.635)" fill="#202661"/>
      <path id="Fill_174" data-name="Fill 174" d="M.117.419a4.175,4.175,0,0,0,1.55.746c.213.02.285-.257.163-.393A4.139,4.139,0,0,0,.351.021c-.266-.112-.5.244-.234.4" transform="translate(34.971 161.876)" fill="#202661"/>
      <path id="Fill_176" data-name="Fill 176" d="M.092.441A2.56,2.56,0,0,0,1.251.852.191.191,0,0,0,1.384.53,2.509,2.509,0,0,0,.231.111C.041.068-.1.346.092.441" transform="translate(28.95 161.393)"/>
      <path id="Fill_178" data-name="Fill 178" d="M.08.288a6.143,6.143,0,0,0,1.5.663c.107.02.22-.117.118-.2A6.114,6.114,0,0,0,.237.021C.058-.06-.1.2.08.288" transform="translate(28.611 161.548)" fill="#202661"/>
      <path id="Fill_180" data-name="Fill 180" d="M.058.3a4.156,4.156,0,0,0,1.148.778c.193.069.31-.192.188-.322A4.015,4.015,0,0,0,.273.02C.1-.07-.1.165.058.3" transform="translate(29.649 160.488)" fill="#202661"/>
      <path id="Fill_182" data-name="Fill 182" d="M15.323.742S13.71,2.351,10.484.473,2.419,2.618,0,6.908c0,0,.268,4.826.268,6.971s1.613,5.9,4.84,6.7,10.752-.4,12.1-7.641c0,0,3.36.938,4.7-.537s1.747-4.558-.941-5.765S17.2,8.383,17.2,8.383A10.325,10.325,0,0,0,15.86,5.032a4.435,4.435,0,0,1-.537-4.29" transform="translate(34.488 10.133)" fill="#202661"/>
      <path id="Fill_184" data-name="Fill 184" d="M2.458,0A2.534,2.534,0,0,0,.772.808C.376,1.18-.16,1.817.045,2.4a.14.14,0,0,0,.2.082c.416-.273.593-.815.922-1.18A7.1,7.1,0,0,1,2.542.313.169.169,0,0,0,2.458,0" transform="translate(52.809 18.355)"/>
      <path id="Fill_186" data-name="Fill 186" d="M.09,1.576A2.582,2.582,0,0,0,2.649,2.1c.816-.252,1.72-.927,1.662-1.856A.256.256,0,0,0,3.88.07,4.627,4.627,0,0,1,2.409,1.237,2.472,2.472,0,0,1,.436,1.129C.16.99-.16,1.345.09,1.576" transform="translate(43.84 19.464)"/>
      <path id="Fill_188" data-name="Fill 188" d="M0,.2a2.267,2.267,0,0,0,3.387,1.8.345.345,0,0,0-.264-.628A2.341,2.341,0,0,1,.422.146C.338-.056-.016-.059,0,.2" transform="translate(35.532 19.266)"/>
      <path id="Fill_190" data-name="Fill 190" d="M.088,1.382A2.238,2.238,0,0,0,3.524.221a.181.181,0,0,0-.33-.138A2.539,2.539,0,0,1,.27,1.072a.18.18,0,0,0-.182.311" transform="translate(40.511 24.361)"/>
      <path id="Fill_192" data-name="Fill 192" d="M.229.641a1.8,1.8,0,0,1,1.114.2,3.436,3.436,0,0,1,.765.706.268.268,0,0,0,.452-.186C2.608.836,2.067.324,1.622.134A1.531,1.531,0,0,0,.087.3.185.185,0,0,0,.229.641" transform="translate(43.951 15.167)" fill="#e0dbd0"/>
      <path id="Fill_194" data-name="Fill 194" d="M2.411.263C1.586-.234.08-.066,0,1.108a.152.152,0,0,0,.228.13C.824.79,1.5.283,2.278.577c.186.07.294-.216.133-.313" transform="translate(37.499 15.098)" fill="#e0dbd0"/>
      <path id="Fill_196" data-name="Fill 196" d="M.185.717A1.794,1.794,0,0,1,1.456.425.059.059,0,0,0,1.487.312,1.589,1.589,0,0,0,.058.5C-.078.586.051.807.185.717" transform="translate(44.034 19.101)"/>
      <path id="Fill_198" data-name="Fill 198" d="M1.294.668A3.286,3.286,0,0,0,.2.077.16.16,0,0,0,.049.343,3.394,3.394,0,0,0,1.207.876c.121.051.2-.145.087-.207" transform="translate(38.358 18.956)"/>
    </g>
    <g id="Group_299" data-name="Group 299" transform="translate(-11.78 310) rotate(9)">
      <g id="Group_14" data-name="Group 14">
        <path id="Fill_297" data-name="Fill 297" d="M0,6.167,5.108,67.836a95.866,95.866,0,0,0,18.28,7.776L11.559,64.082,12.366,0Z" transform="translate(30.656 98.127)" fill="#e0dbd0"/>
        <path id="Fill_300" data-name="Fill 300" d="M18.6,11.662,10.786,4.043c.282,1.2-.539,1.357-2.13.917C5.616,4.118,2.157,1.69,0,0L.322,3.887A95.829,95.829,0,0,0,18.6,11.662" transform="translate(35.441 162.076)" fill="#ff7273"/>
        <path id="Fill_302" data-name="Fill 302" d="M.03.352.648,1.487a3.791,3.791,0,0,0,.619.97.178.178,0,0,0,.3-.171,3.817,3.817,0,0,0-.5-1.045L.437.115C.29-.148-.113.087.03.352" transform="translate(37.856 134.678)"/>
        <path id="Fill_304" data-name="Fill 304" d="M23.388,6.167,18.28,67.836A95.866,95.866,0,0,1,0,75.612l11.829-11.53L11.022,0Z" transform="translate(2.605 98.127)" fill="#e0dbd0"/>
        <path id="Fill_307" data-name="Fill 307" d="M0,11.662,7.817,4.043c-.282,1.2.539,1.357,2.131.917C12.986,4.118,16.446,1.69,18.6,0L18.28,3.887A95.829,95.829,0,0,1,0,11.662" transform="translate(2.605 162.076)" fill="#ff7273"/>
        <path id="Fill_309" data-name="Fill 309" d="M1.13.115.5,1.242A3.789,3.789,0,0,0,0,2.287a.178.178,0,0,0,.3.171,3.834,3.834,0,0,0,.619-.97L1.536.352c.143-.265-.259-.5-.407-.237" transform="translate(17.226 134.678)"/>
        <path id="Fill_311" data-name="Fill 311" d="M0,6.167,5.108,67.836a95.866,95.866,0,0,0,18.28,7.776L11.559,64.082,12.366,0Z" transform="translate(30.656 98.127)" fill="url(#linear-gradient-14)"/>
        <path id="Fill_314" data-name="Fill 314" d="M23.388,6.167,18.28,67.836A95.831,95.831,0,0,1,0,75.612l11.829-11.53L11.022,0Z" transform="translate(2.605 98.127)" fill="url(#linear-gradient-14)"/>
        <path id="Fill_317" data-name="Fill 317" d="M4.424,10.765h.024L3.9,0,3.451.022,3.34.028,2.9.05l.552,10.765h.025s-4.267,1.052-3.34,1.45a10.54,10.54,0,0,0,3.111.342l.74-.037.111-.006.741-.038a10.565,10.565,0,0,0,3.059-.657c.882-.49-3.469-1.1-3.469-1.1" transform="translate(82.431 30.365)" fill="#f5f0e4"/>
        <path id="Fill_319" data-name="Fill 319" d="M5.843,0,3.359.127.876.254S-.01,7.28,0,10.5s1.531,5.561,4.17,5.425S8.082,13.31,7.763,10.1,5.843,0,5.843,0" transform="translate(81.677 14.866)" fill="#f5f0e4"/>
        <path id="Fill_321" data-name="Fill 321" d="M.18.007C.073,1.322,0,2.582,0,3.5A4.875,4.875,0,0,0,1.128,7,2.023,2.023,0,0,0,2.7,7.54a2.018,2.018,0,0,0,1.508-.7A4.869,4.869,0,0,0,4.974,3.25c-.032-.321-.078-.684-.134-1.073a2.3,2.3,0,0,1-2.114-.692C1.937.519,1.673-.07.18.007" transform="translate(83.075 21.859)" fill="#ffc764"/>
        <path id="Fill_323" data-name="Fill 323" d="M1.477.7a.739.739,0,1,0-.7.775A.739.739,0,0,0,1.477.7" transform="translate(82.749 10.307)" fill="#ffc764"/>
        <path id="Fill_325" data-name="Fill 325" d="M1.074.508a.538.538,0,1,0-.509.564A.536.536,0,0,0,1.074.508" transform="translate(85.452 8.099)" fill="#ffc764"/>
        <path id="Fill_327" data-name="Fill 327" d="M.749.465A.269.269,0,1,0,.494.747.27.27,0,0,0,.749.465" transform="translate(84.071 3.732)" fill="#ffc764"/>
        <path id="Fill_329" data-name="Fill 329" d="M5.1.421c.015.3-1.114.594-2.523.665S.016.977,0,.681,1.115.087,2.523.015,5.086.125,5.1.421" transform="translate(82.486 14.441)" fill="#e0dbd0"/>
        <path id="Fill_331" data-name="Fill 331" d="M3.313,9.327c11.287,1.1,18.28-3.575,18.28-3.575S24.461-.5,25.357.033s-.18,3.754-.18,3.754l3.047,3.574-3.943,2.682c-3.406,3.753-12.724,7.686-21.148,8.4,0,0-7.169-9.832.18-9.116" transform="translate(59.691 30.974)" fill="#e0dbd0"/>
        <path id="Fill_333" data-name="Fill 333" d="M3.313,9.327c11.287,1.1,18.28-3.574,18.28-3.574S24.46-.5,25.356.033s-.18,3.754-.18,3.754l3.047,3.574-3.942,2.682c-3.406,3.753-12.725,7.686-21.148,8.4,0,0-7.169-9.832.179-9.116" transform="translate(59.691 30.974)" fill="url(#linear-gradient-16)"/>
        <path id="Fill_336" data-name="Fill 336" d="M1.426,2.774S5.548-1.337,6.444.45s3.4,8.759-4.66,7.329c0,0-3.764-1.788-.359-5.005" transform="translate(82.547 32.701)" fill="#e0dbd0"/>
        <path id="Fill_338" data-name="Fill 338" d="M25.681,3.575S28.728,0,32.849,0s7.707,2.145,10.932,11.082,1.971,11.083,5.736,13.586,7.526,5.54,5.555,13.406S52.024,45.4,51.308,49.335s-2.509,8.938-9.319,9.473-17.563,4.827-21.148,5.005-7.885.715-13.979-1.966-8.627-8.429-5.555-13.406c2.866-4.648,2.4-8.831,1.433-14.122-1.076-5.9,5.377-9.831,7.527-11.619s3.272-6.413,5.018-12.333C17.079,4.289,21.2,2.5,25.681,3.575" transform="translate(0.226 0.977)" fill="#6487fe"/>
        <path id="Fill_340" data-name="Fill 340" d="M3.391,1.375A88.481,88.481,0,0,0,.956,25.164s-2.15,9.116,0,10.368,5.017-8.044,5.017-8.044,2.151,1.43,2.867.894-2.867-4.648-2.867-4.648A79.521,79.521,0,0,1,10.632,4.25S4.395-2.93,3.391,1.375" transform="translate(0.578 61.076)" fill="#e0dbd0"/>
        <path id="Fill_342" data-name="Fill 342" d="M29.224,8.6a6.977,6.977,0,0,0-1.689-.382c-4.3-.358-6.81-.537-6.81-.537l-.717-6.612L12.123,0l-.359,7.329S11.047,8.759,6.925,9.3A10.455,10.455,0,0,0,0,13.128s1.191,9.216,17.32,6S29.224,8.6,29.224,8.6" transform="translate(14.143 24.571)" fill="#e0dbd0"/>
        <path id="Fill_344" data-name="Fill 344" d="M29.225,8.6a7.089,7.089,0,0,0-1.689-.382c-4.3-.357-6.81-.537-6.81-.537l-.717-6.612L12.124,0l-.359,7.328s-.718,1.43-4.84,1.966A10.461,10.461,0,0,0,0,13.127s1.192,9.216,17.321,6S29.225,8.6,29.225,8.6" transform="translate(14.142 24.572)" fill="url(#linear-gradient-17)"/>
        <path id="Fill_347" data-name="Fill 347" d="M39.4.146c.283-1.275,9.758,6.188,19.638,7.126l-.18,9.115C50.431,17.1,40.4,13.349,40.4,13.349a19.9,19.9,0,0,1-2.509,11.62c1.433,12.155,5.556,45.759,5.556,45.759-19.176,7.329-37.635-.714-37.635-.714,1.076-12.156,9.857-44.867,9.857-44.867l-2.42-7.507c-3.495,6.435-4.262,9.966-6,14.657,0,0-4.984.147-7.241-2.875a82.29,82.29,0,0,1,6.525-19.11,28.128,28.128,0,0,1,3.648-5.642S12.976,8.523,21.4,8.7s16.019.352,18-8.556" transform="translate(3.97 33.03)" fill="#202661"/>
        <path id="Fill_349" data-name="Fill 349" d="M.064.453c.715.867,1.433,1.732,2.144,2.6A16.988,16.988,0,0,0,4.412,5.6c.231.186.592-.045.43-.331a16.21,16.21,0,0,0-2.067-2.5Q1.6,1.432.432.086C.21-.168-.146.2.064.453" transform="translate(29.762 48.628)"/>
        <path id="Fill_351" data-name="Fill 351" d="M.034.293A5.9,5.9,0,0,0,1.22,1.921c.113.081.253-.052.223-.17A5.844,5.844,0,0,0,.382.09C.235-.119-.109.073.034.293" transform="translate(33.957 50.289)"/>
        <path id="Fill_353" data-name="Fill 353" d="M.242,2.535A14.538,14.538,0,0,0,2.952.18C3.028.1,2.932-.049,2.826.016A14.463,14.463,0,0,0,.044,2.278c-.126.129.04.365.2.257" transform="translate(44.198 44.154)"/>
        <path id="Fill_355" data-name="Fill 355" d="M.932,3.155A8.007,8.007,0,0,0,.225.053C.17-.058.008.022.032.134.262,1.15.568,2.15.725,3.182c.018.117.214.09.207-.027" transform="translate(43.544 43.76)"/>
        <path id="Fill_357" data-name="Fill 357" d="M1.962,4.474A30.26,30.26,0,0,0,.079.02C.057-.021-.012.007,0,.053A30.307,30.307,0,0,0,1.746,4.564c.058.12.258.035.215-.09" transform="translate(15.812 47.417)"/>
        <path id="Fill_359" data-name="Fill 359" d="M1.583.6A7.249,7.249,0,0,1,.173.086.118.118,0,0,0,.03.27a1.575,1.575,0,0,0,1.552.6c.14-.019.124-.235,0-.267" transform="translate(15.758 49.944)"/>
        <path id="Fill_361" data-name="Fill 361" d="M.012.406c1.145,2.3,4.208,5.6,7.076,5.234A3.425,3.425,0,0,0,9.323.123C9.113-.161,8.638.1,8.837.406a2.967,2.967,0,0,1-.243,3.816c-1.35,1.27-3.216.626-4.551-.253A18.882,18.882,0,0,1,.184.274C.1.176-.041.3.012.406" transform="translate(25.858 31.788)" fill="#ff7273"/>
        <path id="Fill_363" data-name="Fill 363" d="M8.62,0A5.248,5.248,0,0,0,14,2.145c3.584-.894,5.147-.419,7.4,3.58,0,0-.251,4.5-.251,6.5s-1.5,5.5-4.51,6.248S6.615,18.1,5.362,11.347c0,0-3.132.875-4.385-.5S-.652,6.6,1.855,5.474,5.362,7.1,5.362,7.1a15.08,15.08,0,0,0,2.72-3.166A9.926,9.926,0,0,0,8.62,0" transform="translate(18.362 10.808)" fill="#e0dbd0"/>
        <path id="Fill_365" data-name="Fill 365" d="M.073.292a6.366,6.366,0,0,1,1.287.931c.3.33.465.854.853,1.09A.131.131,0,0,0,2.4,2.236c.2-.529-.317-1.143-.674-1.479A2.394,2.394,0,0,0,.152,0a.158.158,0,0,0-.08.291" transform="translate(20.24 17.758)"/>
        <path id="Fill_367" data-name="Fill 367" d="M4.275,1.356A2.79,2.79,0,0,0,2.139.018C1.443-.064.2.118.007.94a.254.254,0,0,0,.243.318C.838,1.258,1.371.839,1.987.8a2.778,2.778,0,0,1,2.057.731c.115.115.326-.037.231-.178" transform="translate(25.461 17.646)"/>
        <path id="Fill_369" data-name="Fill 369" d="M.324,1.547A3.2,3.2,0,0,1,3.351.666c.106.014.211-.106.115-.2a2.329,2.329,0,0,0-3.446.844c-.092.186.144.4.3.233" transform="translate(35.297 16.954)"/>
        <path id="Fill_371" data-name="Fill 371" d="M.481.576a.1.1,0,0,0,0-.193.1.1,0,0,0,0,.193" transform="translate(30.982 23.198)"/>
        <path id="Fill_373" data-name="Fill 373" d="M1.133.484A7.823,7.823,0,0,1,.225.025c-.153-.1-.3.116-.186.241.785.886,2.423,1.409,3.378.482A.22.22,0,0,0,3.2.384C2.134.581,1.195.783.256.05L.108.3a7.486,7.486,0,0,1,.9.389c.141.064.264-.143.123-.21" transform="translate(30.375 23.124)"/>
        <path id="Fill_375" data-name="Fill 375" d="M.929.008C.536.139-.163.482.035,1a.155.155,0,0,0,.223.091C.595.851.57.428,1,.258c.152-.06.093-.3-.069-.25" transform="translate(34.526 16.465)"/>
        <path id="Fill_377" data-name="Fill 377" d="M.983.677A2.585,2.585,0,0,0,.137.1C.02.057-.038.206.027.286A2.554,2.554,0,0,0,.846.855c.11.058.237-.09.137-.178" transform="translate(29.181 17.251)"/>
        <path id="Fill_379" data-name="Fill 379" d="M.372,1.04c.4-.37.78-.329,1.271-.417C1.882.58,1.855.279,1.7.164,1.141-.263.277.215.023.772a.223.223,0,0,0,.349.268" transform="translate(34.316 13.575)" fill="#6487fe"/>
        <path id="Fill_381" data-name="Fill 381" d="M1.889.673A1.678,1.678,0,0,0,.152.069a.216.216,0,0,0,0,.413A5.89,5.89,0,0,1,1.67.956.181.181,0,0,0,1.889.673" transform="translate(28.822 13.706)" fill="#6487fe"/>
      </g>
    </g>
  </g>
</svg>
